<svg preserveAspectRatio="none" overflow="visible" style="display: block;" width="20" height="19.9973" viewBox="0 0 20 19.9973" fill="none" xmlns="http://www.w3.org/2000/svg">
<g id="Group 31">
<path id="Vector" d="M13.2988 9.60767L9.1459 6.5888C8.99349 6.47833 8.79117 6.46169 8.62412 6.54754C8.45574 6.63273 8.35059 6.80577 8.35059 6.99278V13.0285C8.35059 13.2175 8.45574 13.3899 8.62412 13.4751C8.69533 13.511 8.7732 13.529 8.85173 13.529C8.95423 13.529 9.05805 13.4964 9.1459 13.4318L13.2988 10.4156C13.43 10.3191 13.5065 10.17 13.5065 10.0117C13.5072 9.85059 13.4286 9.70218 13.2988 9.60767Z" fill="#DDB049"/>
<path id="Vector_2" d="M10.0003 0C4.47639 0 0 4.47639 0 10.0003C0 15.5223 4.47639 19.9973 10.0003 19.9973C15.5229 19.9973 20 15.5216 20 10.0003C20.0007 4.47639 15.5229 0 10.0003 0ZM10.0003 18.3288C5.40015 18.3288 1.67049 14.6012 1.67049 10.0003C1.67049 5.40148 5.40015 1.66916 10.0003 1.66916C14.5998 1.66916 18.3288 5.40082 18.3288 10.0003C18.3295 14.6012 14.5998 18.3288 10.0003 18.3288Z" fill="#DDB049"/>
</g>
</svg>
